<svg width="120" height="35" viewBox="0 0 120 35" fill="none" xmlns="http://www.w3.org/2000/svg">
<path d="M119.027 22.7852C119.579 22.8003 120.015 23.2601 120 23.8122L119.753 32.8088C119.738 33.3609 119.278 33.7962 118.726 33.7811C118.174 33.766 117.739 33.3062 117.754 32.7541L117.973 24.7571L109.976 24.5381C109.424 24.523 108.989 24.0632 109.004 23.5112C109.019 22.9591 109.479 22.5238 110.031 22.5389L119.027 22.7852ZM56.0667 19.59L56.7076 18.8224L56.0667 19.59ZM1.61941 5.69296C1.18582 6.03505 0.557018 5.96088 0.214929 5.5273C-0.127159 5.09372 -0.0529886 4.46491 0.380594 4.12282L1.61941 5.69296ZM3.13514 2.42163C3.63148 2.17941 4.23019 2.38542 4.4724 2.88176C4.71462 3.3781 4.50861 3.97681 4.01227 4.21903L3.13514 2.42163ZM7.62804 2.89284C7.09432 3.03485 6.54654 2.71731 6.40453 2.18359C6.26252 1.64988 6.58006 1.10209 7.11378 0.960083L7.62804 2.89284ZM13.3209 0.0358009C13.8726 0.0105705 14.3403 0.437366 14.3655 0.989075C14.3907 1.54078 13.9639 2.00848 13.4122 2.03371L13.3209 0.0358009ZM17.3414 2.08556C16.7904 2.04745 16.3746 1.56992 16.4127 1.01895C16.4508 0.467983 16.9284 0.0522194 17.4793 0.0903206L17.3414 2.08556ZM23.6285 0.977715C24.1684 1.0943 24.5115 1.62644 24.3949 2.16628C24.2783 2.70612 23.7462 3.04923 23.2063 2.93264L23.6285 0.977715ZM27.0461 3.92938C26.5175 3.76963 26.2184 3.21155 26.3781 2.68287C26.5379 2.1542 27.096 1.85513 27.6246 2.01488L27.0461 3.92938ZM33.4264 4.11083C33.9358 4.32424 34.1758 4.91018 33.9624 5.41957C33.749 5.92895 33.163 6.16889 32.6536 5.95548L33.4264 4.11083ZM36.2882 7.60893C35.7924 7.36575 35.5875 6.76663 35.8307 6.27077C36.0739 5.77491 36.673 5.57007 37.1689 5.81326L36.2882 7.60893ZM42.5728 8.73359C43.0485 9.01413 43.2067 9.62721 42.9262 10.1029C42.6456 10.5787 42.0325 10.7369 41.5568 10.4563L42.5728 8.73359ZM44.9662 12.5733C44.5035 12.2717 44.373 11.6521 44.6746 11.1895C44.9761 10.7268 45.5957 10.5962 46.0584 10.8978L44.9662 12.5733ZM51.0898 14.3989C51.5339 14.7272 51.6277 15.3534 51.2993 15.7975C50.971 16.2415 50.3448 16.3353 49.9007 16.007L51.0898 14.3989ZM53.0851 18.45C52.6527 18.1064 52.5808 17.4773 52.9244 17.045C53.2681 16.6126 53.8972 16.5407 54.3295 16.8843L53.0851 18.45ZM58.9908 20.6603C59.4274 20.9986 59.507 21.6267 59.1686 22.0633C58.8303 22.4998 58.2022 22.5794 57.7656 22.241L58.9908 20.6603ZM60.9834 24.605C60.5298 24.2899 60.4175 23.6668 60.7326 23.2132C61.0477 22.7596 61.6708 22.6473 62.1244 22.9624L60.9834 24.605ZM67.0481 26.0788C67.5275 26.353 67.6938 26.9639 67.4196 27.4433C67.1454 27.9227 66.5345 28.0891 66.0551 27.8149L67.0481 26.0788ZM69.6068 29.6978C69.1106 29.4553 68.9049 28.8565 69.1474 28.3603C69.3898 27.864 69.9886 27.6583 70.4849 27.9008L69.6068 29.6978ZM75.8302 30.1729C76.3495 30.3609 76.6181 30.9342 76.4302 31.4536C76.2422 31.9729 75.6688 32.2415 75.1495 32.0535L75.8302 30.1729ZM78.9726 33.2734C78.4403 33.1263 78.128 32.5754 78.2751 32.0431C78.4223 31.5108 78.9731 31.1985 79.5054 31.3457L78.9726 33.2734ZM85.177 32.5417C85.7235 32.6213 86.1021 33.1288 86.0225 33.6753C85.943 34.2219 85.4355 34.6004 84.889 34.5209L85.177 32.5417ZM88.8976 34.9269C88.3462 34.8955 87.9247 34.423 87.9561 33.8716C87.9875 33.3202 88.46 32.8987 89.0114 32.9301L88.8976 34.9269ZM94.7851 32.8699C95.3357 32.8267 95.8171 33.2379 95.8603 33.7885C95.9035 34.3391 95.4922 34.8205 94.9417 34.8637L94.7851 32.8699ZM98.9476 34.3641C98.4033 34.4575 97.8863 34.0919 97.7929 33.5476C97.6996 33.0032 98.0651 32.4863 98.6095 32.3929L98.9476 34.3641ZM104.222 31.0271C104.748 30.8599 105.31 31.151 105.477 31.6773C105.645 32.2037 105.354 32.766 104.827 32.9332L104.222 31.0271ZM108.618 31.5326C108.109 31.7479 107.522 31.5102 107.307 31.0016C107.092 30.493 107.329 29.9062 107.838 29.6909L108.618 31.5326ZM112.973 27.0692C113.445 26.7826 114.06 26.9328 114.347 27.4049C114.634 27.8769 114.484 28.492 114.011 28.7787L112.973 27.0692ZM117.363 26.4886C116.925 26.8255 116.297 26.7439 115.961 26.3063C115.624 25.8686 115.705 25.2408 116.143 24.9039L117.363 26.4886ZM0.380594 4.12282C1.14205 3.52205 2.06402 2.94434 3.13514 2.42163L4.01227 4.21903C3.05436 4.68649 2.25627 5.19049 1.61941 5.69296L0.380594 4.12282ZM7.11378 0.960083C8.93655 0.475082 11.0109 0.141434 13.3209 0.0358009L13.4122 2.03371C11.2394 2.13308 9.30712 2.44607 7.62804 2.89284L7.11378 0.960083ZM17.4793 0.0903206C19.4043 0.223431 21.4561 0.508545 23.6285 0.977715L23.2063 2.93264C21.1246 2.48305 19.1677 2.21185 17.3414 2.08556L17.4793 0.0903206ZM27.6246 2.01488C29.4843 2.57681 31.4193 3.26993 33.4264 4.11083L32.6536 5.95548C30.7078 5.14026 28.8376 4.47071 27.0461 3.92938L27.6246 2.01488ZM37.1689 5.81326C38.9215 6.67282 40.7234 7.64301 42.5728 8.73359L41.5568 10.4563C39.7501 9.39087 37.9933 8.44514 36.2882 7.60893L37.1689 5.81326ZM46.0584 10.8978C47.7015 11.9689 49.379 13.1338 51.0898 14.3989L49.9007 16.007C48.2205 14.7645 46.5753 13.6221 44.9662 12.5733L46.0584 10.8978ZM54.3295 16.8843C55.1157 17.5092 55.9084 18.155 56.7076 18.8224L55.4257 20.3576C54.6387 19.7004 53.8584 19.0647 53.0851 18.45L54.3295 16.8843ZM56.7076 18.8224C57.4715 19.4603 58.2327 20.0726 58.9908 20.6603L57.7656 22.241C56.988 21.6383 56.208 21.0107 55.4257 20.3576L56.7076 18.8224ZM62.1244 22.9624C63.7829 24.1144 65.4251 25.1505 67.0481 26.0788L66.0551 27.8149C64.38 26.8568 62.6886 25.7894 60.9834 24.605L62.1244 22.9624ZM70.4849 27.9008C72.2947 28.7852 74.0778 29.5386 75.8302 30.1729L75.1495 32.0535C73.3287 31.3944 71.4798 30.613 69.6068 29.6978L70.4849 27.9008ZM79.5054 31.3457C81.4398 31.8803 83.3322 32.2733 85.177 32.5417L84.889 34.5209C82.9616 34.2404 80.9874 33.8303 78.9726 33.2734L79.5054 31.3457ZM89.0114 32.9301C91.0022 33.0436 92.9294 33.0156 94.7851 32.8699L94.9417 34.8637C92.998 35.0164 90.9804 35.0456 88.8976 34.9269L89.0114 32.9301ZM98.6095 32.3929C100.581 32.0547 102.456 31.5882 104.222 31.0271L104.827 32.9332C102.977 33.5211 101.013 34.0098 98.9476 34.3641L98.6095 32.3929ZM107.838 29.6909C109.718 28.8951 111.436 28.003 112.973 27.0692L114.011 28.7787C112.393 29.7618 110.588 30.6984 108.618 31.5326L107.838 29.6909ZM116.143 24.9039C116.95 24.2822 117.675 23.6621 118.313 23.0586L119.687 24.511C118.998 25.1639 118.221 25.828 117.363 26.4886L116.143 24.9039Z" fill="#D9BDF5"/>
</svg>
