<svg width="120" height="35" viewBox="0 0 120 35" fill="none" xmlns="http://www.w3.org/2000/svg">
<path d="M119.027 12.2148C119.579 12.1997 120.015 11.7399 120 11.1878L119.753 2.19117C119.738 1.63909 119.278 1.2038 118.726 1.21891C118.174 1.23403 117.739 1.69383 117.754 2.24591L117.973 10.2429L109.976 10.4619C109.424 10.477 108.989 10.9368 109.004 11.4888C109.019 12.0409 109.479 12.4762 110.031 12.4611L119.027 12.2148ZM56.0667 15.41L56.7076 16.1776L56.0667 15.41ZM1.61941 29.307C1.18582 28.9649 0.557018 29.0391 0.214929 29.4727C-0.127159 29.9063 -0.0529886 30.5351 0.380594 30.8772L1.61941 29.307ZM3.13514 32.5784C3.63148 32.8206 4.23019 32.6146 4.4724 32.1182C4.71462 31.6219 4.50861 31.0232 4.01227 30.781L3.13514 32.5784ZM7.62804 32.1072C7.09432 31.9652 6.54654 32.2827 6.40453 32.8164C6.26252 33.3501 6.58006 33.8979 7.11378 34.0399L7.62804 32.1072ZM13.3209 34.9642C13.8726 34.9894 14.3403 34.5626 14.3655 34.0109C14.3907 33.4592 13.9639 32.9915 13.4122 32.9663L13.3209 34.9642ZM17.3414 32.9144C16.7904 32.9525 16.3746 33.4301 16.4127 33.981C16.4508 34.532 16.9284 34.9478 17.4793 34.9097L17.3414 32.9144ZM23.6285 34.0223C24.1684 33.9057 24.5115 33.3736 24.3949 32.8337C24.2783 32.2939 23.7462 31.9508 23.2063 32.0674L23.6285 34.0223ZM27.0461 31.0706C26.5175 31.2304 26.2184 31.7885 26.3781 32.3171C26.5379 32.8458 27.096 33.1449 27.6246 32.9851L27.0461 31.0706ZM33.4264 30.8892C33.9358 30.6758 34.1758 30.0898 33.9624 29.5804C33.749 29.071 33.163 28.8311 32.6536 29.0445L33.4264 30.8892ZM36.2882 27.3911C35.7924 27.6343 35.5875 28.2334 35.8307 28.7292C36.0739 29.2251 36.673 29.4299 37.1689 29.1867L36.2882 27.3911ZM42.5728 26.2664C43.0485 25.9859 43.2067 25.3728 42.9262 24.8971C42.6456 24.4213 42.0325 24.2631 41.5568 24.5437L42.5728 26.2664ZM44.9662 22.4267C44.5035 22.7283 44.373 23.3479 44.6746 23.8105C44.9761 24.2732 45.5957 24.4038 46.0584 24.1022L44.9662 22.4267ZM51.0898 20.6011C51.5339 20.2728 51.6277 19.6466 51.2993 19.2025C50.971 18.7585 50.3448 18.6647 49.9007 18.993L51.0898 20.6011ZM53.0851 16.55C52.6527 16.8936 52.5808 17.5227 52.9244 17.955C53.2681 18.3874 53.8972 18.4593 54.3295 18.1157L53.0851 16.55ZM58.9908 14.3397C59.4274 14.0014 59.507 13.3733 59.1686 12.9367C58.8303 12.5002 58.2022 12.4206 57.7656 12.759L58.9908 14.3397ZM60.9834 10.395C60.5298 10.7101 60.4175 11.3332 60.7326 11.7868C61.0477 12.2404 61.6708 12.3527 62.1244 12.0376L60.9834 10.395ZM67.0481 8.92124C67.5275 8.64703 67.6938 8.03611 67.4196 7.55671C67.1454 7.0773 66.5345 6.91095 66.0551 7.18515L67.0481 8.92124ZM69.6068 5.30224C69.1106 5.54471 68.9049 6.14353 69.1474 6.63974C69.3898 7.13596 69.9886 7.34165 70.4849 7.09918L69.6068 5.30224ZM75.8302 4.8271C76.3495 4.63912 76.6181 4.06575 76.4302 3.54644C76.2422 3.02713 75.6688 2.75854 75.1495 2.94652L75.8302 4.8271ZM78.9726 1.72661C78.4403 1.87374 78.128 2.42455 78.2751 2.95688C78.4223 3.4892 78.9731 3.80147 79.5054 3.65434L78.9726 1.72661ZM85.177 2.45826C85.7235 2.37873 86.1021 1.87121 86.0225 1.32468C85.943 0.778149 85.4355 0.399571 84.889 0.479101L85.177 2.45826ZM88.8976 0.0730977C88.3462 0.104516 87.9247 0.576976 87.9561 1.12837C87.9875 1.67976 88.46 2.10128 89.0114 2.06986L88.8976 0.0730977ZM94.7851 2.13011C95.3357 2.17335 95.8171 1.76205 95.8603 1.21146C95.9035 0.660874 95.4922 0.179484 94.9417 0.13625L94.7851 2.13011ZM98.9476 0.635895C98.4033 0.542521 97.8863 0.908096 97.7929 1.45243C97.6996 1.99676 98.0651 2.51373 98.6095 2.6071L98.9476 0.635895ZM104.222 3.97288C104.748 4.14013 105.31 3.84902 105.477 3.32267C105.645 2.79631 105.354 2.23404 104.827 2.06679L104.222 3.97288ZM108.618 3.46737C108.109 3.25207 107.522 3.48984 107.307 3.99843C107.092 4.50702 107.329 5.09385 107.838 5.30914L108.618 3.46737ZM112.973 7.93076C113.445 8.21744 114.06 8.06716 114.347 7.59511C114.634 7.12306 114.484 6.50798 114.011 6.22131L112.973 7.93076ZM117.363 8.51137C116.925 8.17447 116.297 8.25612 115.961 8.69374C115.624 9.13137 115.705 9.75925 116.143 10.0961L117.363 8.51137ZM0.380594 30.8772C1.14205 31.4779 2.06402 32.0557 3.13514 32.5784L4.01227 30.781C3.05436 30.3135 2.25627 29.8095 1.61941 29.307L0.380594 30.8772ZM7.11378 34.0399C8.93655 34.5249 11.0109 34.8586 13.3209 34.9642L13.4122 32.9663C11.2394 32.8669 9.30712 32.5539 7.62804 32.1072L7.11378 34.0399ZM17.4793 34.9097C19.4043 34.7766 21.4561 34.4915 23.6285 34.0223L23.2063 32.0674C21.1246 32.5169 19.1677 32.7882 17.3414 32.9144L17.4793 34.9097ZM27.6246 32.9851C29.4843 32.4232 31.4193 31.7301 33.4264 30.8892L32.6536 29.0445C30.7078 29.8597 28.8376 30.5293 27.0461 31.0706L27.6246 32.9851ZM37.1689 29.1867C38.9215 28.3272 40.7234 27.357 42.5728 26.2664L41.5568 24.5437C39.7501 25.6091 37.9933 26.5549 36.2882 27.3911L37.1689 29.1867ZM46.0584 24.1022C47.7015 23.0311 49.379 21.8662 51.0898 20.6011L49.9007 18.993C48.2205 20.2355 46.5753 21.3779 44.9662 22.4267L46.0584 24.1022ZM54.3295 18.1157C55.1157 17.4908 55.9084 16.845 56.7076 16.1776L55.4257 14.6424C54.6387 15.2996 53.8584 15.9353 53.0851 16.55L54.3295 18.1157ZM56.7076 16.1776C57.4715 15.5397 58.2327 14.9274 58.9908 14.3397L57.7656 12.759C56.988 13.3617 56.208 13.9893 55.4257 14.6424L56.7076 16.1776ZM62.1244 12.0376C63.7829 10.8856 65.4251 9.84954 67.0481 8.92124L66.0551 7.18515C64.38 8.14323 62.6886 9.21058 60.9834 10.395L62.1244 12.0376ZM70.4849 7.09918C72.2947 6.21481 74.0778 5.46145 75.8302 4.8271L75.1495 2.94652C73.3287 3.60561 71.4798 4.38702 69.6068 5.30224L70.4849 7.09918ZM79.5054 3.65434C81.4398 3.11969 83.3322 2.72671 85.177 2.45826L84.889 0.479101C82.9616 0.759567 80.9874 1.16973 78.9726 1.72661L79.5054 3.65434ZM89.0114 2.06986C91.0022 1.95642 92.9294 1.9844 94.7851 2.13011L94.9417 0.13625C92.998 -0.0163757 90.9804 -0.0455846 88.8976 0.0730977L89.0114 2.06986ZM98.6095 2.6071C100.581 2.94533 102.456 3.41179 104.222 3.97288L104.827 2.06679C102.977 1.47889 101.013 0.990215 98.9476 0.635895L98.6095 2.6071ZM107.838 5.30914C109.718 6.10491 111.436 6.99703 112.973 7.93076L114.011 6.22131C112.393 5.23817 110.588 4.3016 108.618 3.46737L107.838 5.30914ZM116.143 10.0961C116.95 10.7178 117.675 11.3379 118.313 11.9414L119.687 10.489C118.998 9.83606 118.221 9.17199 117.363 8.51137L116.143 10.0961Z" fill="#D9BDF5"/>
</svg>
