<svg width="148" height="38" viewBox="0 0 148 38" fill="none" xmlns="http://www.w3.org/2000/svg">
<path d="M42.4814 27.9995H45.6434V21.6074H48.865L52.2911 27.9995H55.8195L52.0439 21.079C54.0979 20.2523 55.1803 18.4966 55.1803 16.1273C55.1803 12.7949 53.0326 10.5449 49.0269 10.5449H42.4814V27.9995ZM45.6434 18.9824V13.187H48.5411C50.9019 13.187 51.9587 14.2694 51.9587 16.1273C51.9587 17.9853 50.9019 18.9824 48.5582 18.9824H45.6434Z" fill="#311665"/>
<path d="M57.9545 27.9995H61.0397V14.9086H57.9545V27.9995ZM59.5056 13.0506C60.4857 13.0506 61.2868 12.3006 61.2868 11.3801C61.2868 10.4512 60.4857 9.70117 59.5056 9.70117C58.517 9.70117 57.7158 10.4512 57.7158 11.3801C57.7158 12.3006 58.517 13.0506 59.5056 13.0506Z" fill="#311665"/>
<path d="M64.2123 27.9995H67.2975V20.0392C67.2975 18.4284 68.3714 17.3375 69.7009 17.3375C71.0049 17.3375 71.8998 18.2154 71.8998 19.562V27.9995H74.9253V19.8347C74.9253 18.3603 75.8032 17.3375 77.2947 17.3375C78.539 17.3375 79.5276 18.0705 79.5276 19.6898V27.9995H82.6214V19.2125C82.6214 16.2892 80.9339 14.7381 78.5304 14.7381C76.6299 14.7381 75.181 15.6756 74.6015 17.133H74.4651C73.9623 15.65 72.6924 14.7381 70.9282 14.7381C69.1725 14.7381 67.86 15.6415 67.3145 17.133H67.1611V14.9086H64.2123V27.9995Z" fill="#311665"/>
<path d="M96.0979 18.3688C95.6718 16.1529 93.8991 14.7381 90.8309 14.7381C87.6775 14.7381 85.5297 16.2892 85.5383 18.7097C85.5297 20.6188 86.7059 21.8801 89.2201 22.4L91.453 22.8688C92.6547 23.133 93.2172 23.6188 93.2172 24.3603C93.2172 25.2551 92.2456 25.9284 90.7797 25.9284C89.365 25.9284 88.4445 25.3148 88.1803 24.1387L85.1718 24.4284C85.5553 26.8319 87.5752 28.2551 90.7883 28.2551C94.061 28.2551 96.3707 26.5591 96.3792 24.079C96.3707 22.2125 95.1689 21.0705 92.6974 20.5336L90.4644 20.0563C89.1348 19.758 88.6064 19.2978 88.615 18.5392C88.6064 17.6529 89.5866 17.0392 90.8735 17.0392C92.2968 17.0392 93.0468 17.8148 93.2854 18.6756L96.0979 18.3688Z" fill="#311665"/>
<path d="M102.008 20.329C102.008 18.437 103.185 17.3461 104.838 17.3461C106.457 17.3461 107.412 18.3773 107.412 20.1415V27.9995H110.497V19.6642C110.497 16.5023 108.707 14.7381 105.989 14.7381C103.977 14.7381 102.699 15.65 102.094 17.133H101.94V10.5449H98.9232V27.9995H102.008V20.329Z" fill="#311665"/>
<path d="M119.352 28.2551C123.187 28.2551 125.625 25.5534 125.625 21.5051C125.625 17.4483 123.187 14.7381 119.352 14.7381C115.517 14.7381 113.079 17.4483 113.079 21.5051C113.079 25.5534 115.517 28.2551 119.352 28.2551ZM119.369 25.7836C117.247 25.7836 116.207 23.8915 116.207 21.4966C116.207 19.1017 117.247 17.1841 119.369 17.1841C121.457 17.1841 122.497 19.1017 122.497 21.4966C122.497 23.8915 121.457 25.7836 119.369 25.7836Z" fill="#311665"/>
<path d="M134.78 14.9086H132.198V11.7722H129.113V14.9086H127.255V17.2949H129.113V24.5733C129.096 27.0364 130.886 28.2466 133.204 28.1784C134.082 28.1529 134.687 27.9824 135.019 27.8716L134.499 25.4597C134.329 25.5023 133.979 25.579 133.596 25.579C132.82 25.579 132.198 25.3063 132.198 24.062V17.2949H134.78V14.9086Z" fill="#311665"/>
<path d="M147.52 18.3688C147.094 16.1529 145.321 14.7381 142.253 14.7381C139.099 14.7381 136.952 16.2892 136.96 18.7097C136.952 20.6188 138.128 21.8801 140.642 22.4L142.875 22.8688C144.077 23.133 144.639 23.6188 144.639 24.3603C144.639 25.2551 143.668 25.9284 142.202 25.9284C140.787 25.9284 139.866 25.3148 139.602 24.1387L136.594 24.4284C136.977 26.8319 138.997 28.2551 142.21 28.2551C145.483 28.2551 147.793 26.5591 147.801 24.079C147.793 22.2125 146.591 21.0705 144.119 20.5336L141.886 20.0563C140.557 19.758 140.028 19.2978 140.037 18.5392C140.028 17.6529 141.008 17.0392 142.295 17.0392C143.719 17.0392 144.469 17.8148 144.707 18.6756L147.52 18.3688Z" fill="#311665"/>
<path d="M0 1.68889C0 0.756138 0.756138 0 1.68889 0H25.6852C30.5432 0 34.4815 3.93823 34.4815 8.7963C34.4815 13.6544 30.5432 17.5926 25.6852 17.5926V20.5481C30.5432 20.5481 34.4815 24.4864 34.4815 29.3444C34.4815 33.6646 31.367 37.2574 27.2609 38H1.68889C0.756138 38 0 37.2439 0 36.3111V1.68889Z" fill="url(#paint0_linear_11_346)"/>
<path fill-rule="evenodd" clip-rule="evenodd" d="M16.3259 8.62528C13.8642 8.841 11.6497 9.91903 9.98629 11.5555C11.7404 13.5112 12.8074 16.0959 12.8074 18.9298C12.8074 21.7637 11.7404 24.3484 9.98629 26.3041C11.6497 27.9406 13.8642 29.0187 16.3259 29.2344L16.3259 8.62528ZM18.2963 29.2211C20.7386 28.9735 22.9299 27.8764 24.57 26.2299C22.8551 24.2832 21.8148 21.728 21.8148 18.9298C21.8148 16.1316 22.8551 13.5764 24.57 11.6298C22.9299 9.98324 20.7386 8.88611 18.2963 8.63858L18.2963 29.2211ZM25.8398 13.1778C24.5558 14.7437 23.7852 16.7468 23.7852 18.9298C23.7852 21.1129 24.5558 23.116 25.8398 24.6819C26.9422 23.0371 27.5852 21.0586 27.5852 18.9298C27.5852 16.8011 26.9422 14.8225 25.8398 13.1778ZM8.70494 24.7751C10.0354 23.1959 10.8371 21.1565 10.8371 18.9298C10.8371 16.7032 10.0354 14.6638 8.70494 13.0845C7.56395 14.7475 6.89632 16.7607 6.89632 18.9298C6.89632 21.099 7.56395 23.1121 8.70494 24.7751Z" fill="white"/>
<defs>
<linearGradient id="paint0_linear_11_346" x1="4" y1="-2" x2="29" y2="39" gradientUnits="userSpaceOnUse">
<stop stop-color="#933DF3"/>
<stop offset="1" stop-color="#6B27FD"/>
</linearGradient>
</defs>
</svg>
