<svg width="42" height="42" viewBox="0 0 42 42" fill="none" xmlns="http://www.w3.org/2000/svg">
<path fill-rule="evenodd" clip-rule="evenodd" d="M31.5 22.4922C31.5 21.9399 31.0523 21.4922 30.5 21.4922H11.5C10.9477 21.4922 10.5 21.9399 10.5 22.4922V41C10.5 41.5523 10.9477 42 11.5 42H11.7969C12.3492 42 12.7969 41.5523 12.7969 41V40.8672C12.7969 40.3149 13.2446 39.8672 13.7969 39.8672H15.4062C15.9585 39.8672 16.4062 40.3149 16.4062 40.8672V41C16.4062 41.5523 16.854 42 17.4062 42H18.1953C18.7476 42 19.1953 41.5523 19.1953 41V40.8672C19.1953 40.3149 19.643 39.8672 20.1953 39.8672H21.8047C22.357 39.8672 22.8047 40.3149 22.8047 40.8672V41C22.8047 41.5523 23.2524 42 23.8047 42H24.5938C25.146 42 25.5938 41.5523 25.5938 41V40.8672C25.5938 40.3149 26.0415 39.8672 26.5938 39.8672H28.2031C28.7554 39.8672 29.2031 40.3149 29.2031 40.8672V41C29.2031 41.5523 29.6508 42 30.2031 42H30.5C31.0523 42 31.5 41.5523 31.5 41V22.4922ZM16.4062 31.3516C16.4062 30.7993 15.9585 30.3516 15.4062 30.3516H13.7969C13.2446 30.3516 12.7969 30.7993 12.7969 31.3516V31.6484C12.7969 32.2007 13.2446 32.6484 13.7969 32.6484H15.4062C15.9585 32.6484 16.4062 32.2007 16.4062 31.6484V31.3516ZM16.4062 36.2734C16.4062 35.7212 15.9585 35.2734 15.4062 35.2734H13.7969C13.2446 35.2734 12.7969 35.7212 12.7969 36.2734V36.5703C12.7969 37.1226 13.2446 37.5703 13.7969 37.5703H15.4062C15.9585 37.5703 16.4062 37.1226 16.4062 36.5703V36.2734ZM22.8047 31.3516C22.8047 30.7993 22.357 30.3516 21.8047 30.3516H20.1953C19.643 30.3516 19.1953 30.7993 19.1953 31.3516V31.6484C19.1953 32.2007 19.643 32.6484 20.1953 32.6484H21.8047C22.357 32.6484 22.8047 32.2007 22.8047 31.6484V31.3516ZM19.1953 36.2734C19.1953 35.7212 19.643 35.2734 20.1953 35.2734H21.8047C22.357 35.2734 22.8047 35.7212 22.8047 36.2734V36.5703C22.8047 37.1226 22.357 37.5703 21.8047 37.5703H20.1953C19.643 37.5703 19.1953 37.1226 19.1953 36.5703V36.2734ZM25.5938 31.3516C25.5938 30.7993 26.0415 30.3516 26.5938 30.3516H28.2031C28.7554 30.3516 29.2031 30.7993 29.2031 31.3516V31.6484C29.2031 32.2007 28.7554 32.6484 28.2031 32.6484H26.5938C26.0415 32.6484 25.5938 32.2007 25.5938 31.6484V31.3516ZM29.2031 36.2734C29.2031 35.7212 28.7554 35.2734 28.2031 35.2734H26.5938C26.0415 35.2734 25.5938 35.7212 25.5938 36.2734V36.5703C25.5938 37.1226 26.0415 37.5703 26.5938 37.5703H28.2031C28.7554 37.5703 29.2031 37.1226 29.2031 36.5703V36.2734Z" fill="url(#paint0_linear_11_202)"/>
<path d="M7.875 8.54688C7.875 7.99459 8.32272 7.54688 8.875 7.54688H33.125C33.6773 7.54688 34.125 7.99459 34.125 8.54687V18.0312C34.125 18.5835 33.6773 19.0312 33.125 19.0312H8.875C8.32272 19.0312 7.875 18.5835 7.875 18.0312V8.54688Z" fill="url(#paint1_linear_11_202)"/>
<path d="M42 1C42 0.447715 41.5523 0 41 0H1C0.447715 0 0 0.447715 0 0.999999V31.4844C0 32.0367 0.447715 32.4844 1 32.4844H6.875C7.42728 32.4844 7.875 32.0367 7.875 31.4844V28.2344C7.875 27.6821 7.42728 27.2344 6.875 27.2344H6.25C5.69772 27.2344 5.25 26.7867 5.25 26.2344V6.25C5.25 5.69772 5.69772 5.25 6.25 5.25H35.75C36.3023 5.25 36.75 5.69772 36.75 6.25V26.2344C36.75 26.7867 36.3023 27.2344 35.75 27.2344H35.125C34.5727 27.2344 34.125 27.6821 34.125 28.2344V31.4844C34.125 32.0367 34.5727 32.4844 35.125 32.4844H41C41.5523 32.4844 42 32.0367 42 31.4844V1Z" fill="url(#paint2_linear_11_202)"/>
<defs>
<linearGradient id="paint0_linear_11_202" x1="11.75" y1="21.4922" x2="33.1094" y2="44.1344" gradientUnits="userSpaceOnUse">
<stop stop-color="#FF9B9B"/>
<stop offset="0.516874" stop-color="#F54E4E"/>
<stop offset="1" stop-color="#FF9B9B"/>
</linearGradient>
<linearGradient id="paint1_linear_11_202" x1="9.4375" y1="7.54687" x2="18.0301" y2="27.8787" gradientUnits="userSpaceOnUse">
<stop stop-color="#FF9B9B"/>
<stop offset="0.516874" stop-color="#F54E4E"/>
<stop offset="1" stop-color="#FF9B9B"/>
</linearGradient>
<linearGradient id="paint2_linear_11_202" x1="2.5" y1="-2.49195e-07" x2="35" y2="43.5" gradientUnits="userSpaceOnUse">
<stop stop-color="#FF9B9B"/>
<stop offset="0.516874" stop-color="#F54E4E"/>
<stop offset="1" stop-color="#FF9B9B"/>
</linearGradient>
</defs>
</svg>
