<svg width="48" height="42" viewBox="0 0 48 42" fill="none" xmlns="http://www.w3.org/2000/svg">
<path d="M46.3867 0H1.4C0.626827 0 0 0.626827 0 1.4V29.4C0 30.1732 0.626827 30.8 1.4 30.8H46.3867C47.1598 30.8 47.7867 30.1732 47.7867 29.4V1.4C47.7867 0.626827 47.1598 0 46.3867 0Z" fill="url(#paint0_linear_11_180)"/>
<path d="M7 36.3999H1.4C0.626827 36.3999 0 37.0267 0 37.7999C0 38.5731 0.626827 39.1999 1.4 39.1999H7C7.77317 39.1999 8.4 38.5731 8.4 37.7999C8.4 37.0267 7.77317 36.3999 7 36.3999ZM46.3867 36.3999H12.6C11.8268 36.3999 11.2 37.0267 11.2 37.7999C11.2 38.5731 11.8268 39.1999 12.6 39.1999H46.3867C47.1598 39.1999 47.7867 38.5731 47.7867 37.7999C47.7867 37.0267 47.1598 36.3999 46.3867 36.3999Z" fill="url(#paint1_linear_11_180)"/>
<g filter="url(#filter0_d_11_180)">
<path d="M30.1194 14.1477L18.9194 8.54772C18.4854 8.33072 17.9701 8.35387 17.5573 8.60904C17.1446 8.86412 16.8933 9.31474 16.8933 9.79998V21C16.8933 21.4852 17.1446 21.9358 17.5573 22.1909C17.7821 22.3299 18.0374 22.4 18.2933 22.4C18.5072 22.4 18.7218 22.351 18.9194 22.2522L30.1194 16.6522C30.5937 16.415 30.8933 15.9303 30.8933 15.4C30.8933 14.8697 30.5937 14.385 30.1194 14.1477Z" fill="white"/>
</g>
<path d="M9.79998 33.6001C7.4841 33.6001 5.59998 35.4842 5.59998 37.8001C5.59998 40.116 7.4841 42.0001 9.79998 42.0001C12.1159 42.0001 14 40.116 14 37.8001C14 35.4842 12.1159 33.6001 9.79998 33.6001Z" fill="url(#paint2_linear_11_180)"/>
<defs>
<filter id="filter0_d_11_180" x="6.89331" y="0.399902" width="34" height="34" filterUnits="userSpaceOnUse" color-interpolation-filters="sRGB">
<feFlood flood-opacity="0" result="BackgroundImageFix"/>
<feColorMatrix in="SourceAlpha" type="matrix" values="0 0 0 0 0 0 0 0 0 0 0 0 0 0 0 0 0 0 127 0" result="hardAlpha"/>
<feOffset dy="2"/>
<feGaussianBlur stdDeviation="5"/>
<feComposite in2="hardAlpha" operator="out"/>
<feColorMatrix type="matrix" values="0 0 0 0 0.141572 0 0 0 0 0.33047 0 0 0 0 0.742611 0 0 0 0.4 0"/>
<feBlend mode="normal" in2="BackgroundImageFix" result="effect1_dropShadow_11_180"/>
<feBlend mode="normal" in="SourceGraphic" in2="effect1_dropShadow_11_180" result="shape"/>
</filter>
<linearGradient id="paint0_linear_11_180" x1="2.84445" y1="-2.36274e-07" x2="31.6798" y2="46.314" gradientUnits="userSpaceOnUse">
<stop stop-color="#9FBCF9"/>
<stop offset="0.516874" stop-color="#427BF6"/>
<stop offset="1" stop-color="#9AB9FC"/>
</linearGradient>
<linearGradient id="paint1_linear_11_180" x1="2.84445" y1="36.3999" x2="3.17407" y2="42.2237" gradientUnits="userSpaceOnUse">
<stop stop-color="#9FBCF9"/>
<stop offset="0.516874" stop-color="#427BF6"/>
<stop offset="1" stop-color="#9AB9FC"/>
</linearGradient>
<linearGradient id="paint2_linear_11_180" x1="6.09998" y1="33.6001" x2="14.8584" y2="42.667" gradientUnits="userSpaceOnUse">
<stop stop-color="#9FBCF9"/>
<stop offset="0.516874" stop-color="#427BF6"/>
<stop offset="1" stop-color="#9AB9FC"/>
</linearGradient>
</defs>
</svg>
