<svg width="45" height="42" viewBox="0 0 45 42" fill="none" xmlns="http://www.w3.org/2000/svg">
<path fill-rule="evenodd" clip-rule="evenodd" d="M18.6903 28.958C18.6903 29.3338 18.4516 29.6651 18.1062 29.8131C14.6366 31.2991 12.2059 34.7448 12.2059 38.7581C12.2059 39.5172 12.2929 40.256 12.4574 40.9651C12.6035 41.595 13.1917 42.0003 13.8384 42.0003H30.0267C30.6733 42.0003 31.2615 41.595 31.4076 40.9651C31.5721 40.256 31.6591 39.5172 31.6591 38.7581C31.6591 34.6751 29.1432 31.1797 25.5772 29.7374C25.3381 29.6408 25.1747 29.4126 25.1747 29.1547C25.1747 28.9558 25.2734 28.7713 25.4296 28.648C26.6683 27.6701 27.4633 26.1551 27.4633 24.4543C27.4633 21.5051 25.0725 19.1143 22.1232 19.1143C19.174 19.1143 16.7831 21.5051 16.7831 24.4543C16.7831 25.9478 17.3963 27.2982 18.3845 28.2673C18.5715 28.4507 18.6903 28.6961 18.6903 28.958Z" fill="url(#paint0_linear_11_169)"/>
<path d="M5.90028 27.1426C6.24569 26.9947 6.48439 26.6634 6.48439 26.2876C6.48439 26.0257 6.36558 25.7803 6.1786 25.5969C5.19033 24.6277 4.57721 23.2774 4.57721 21.7839C4.57721 18.8347 6.96805 16.4438 9.9173 16.4438C12.8665 16.4438 15.2574 18.8347 15.2574 21.7839C15.2574 23.4847 14.4623 24.9997 13.2236 25.9776C13.0675 26.1009 12.9688 26.2854 12.9688 26.4843C12.9688 26.7422 13.1322 26.9703 13.3712 27.067C14.0056 27.3236 14.6066 27.6451 15.1663 28.0233C15.7198 28.3974 15.6486 29.1987 15.1236 29.6119C12.4192 31.7409 10.6802 35.045 10.6802 38.7578C10.6802 39.0693 10.4332 39.3299 10.1217 39.3299H1.63243C0.985792 39.3299 0.397594 38.9246 0.251459 38.2947C0.0869593 37.5856 0 36.8468 0 36.0877C0 32.0743 2.43072 28.6287 5.90028 27.1426Z" fill="url(#paint1_linear_11_169)"/>
<path d="M38.1647 27.1426C37.8193 26.9947 37.5806 26.6634 37.5806 26.2876C37.5806 26.0257 37.6994 25.7803 37.8863 25.5969C38.8746 24.6277 39.4877 23.2774 39.4877 21.7839C39.4877 18.8347 37.0969 16.4438 34.1476 16.4438C31.1984 16.4438 28.8076 18.8347 28.8076 21.7839C28.8076 23.4847 29.6026 24.9997 30.8413 25.9776C30.9974 26.1009 31.0962 26.2854 31.0962 26.4843C31.0962 26.7422 30.9328 26.9703 30.6937 27.067C30.0594 27.3236 29.4583 27.6451 28.8987 28.0233C28.3451 28.3974 28.4164 29.1987 28.9414 29.6119C31.6458 31.7409 33.3848 35.045 33.3848 38.7578C33.3848 39.0693 33.6318 39.3299 33.9433 39.3299H42.4325C43.0791 39.3299 43.6673 38.9246 43.8135 38.2947C43.978 37.5856 44.0649 36.8468 44.0649 36.0877C44.0649 32.0743 41.6342 28.6287 38.1647 27.1426Z" fill="url(#paint2_linear_11_169)"/>
<path d="M21.6102 0.318937C21.82 -0.106312 22.4264 -0.106313 22.6363 0.318937L24.6805 4.46099C24.7639 4.62986 24.925 4.7469 25.1113 4.77398L29.6823 5.43819C30.1516 5.50638 30.339 6.0831 29.9994 6.41411L26.6918 9.63825C26.557 9.76969 26.4954 9.95907 26.5273 10.1447L27.3081 14.6972C27.3883 15.1646 26.8977 15.5211 26.4779 15.3004L22.3895 13.151C22.2228 13.0633 22.0237 13.0633 21.857 13.151L17.7685 15.3004C17.3488 15.5211 16.8582 15.1646 16.9384 14.6972L17.7192 10.1447C17.751 9.95907 17.6895 9.76969 17.5546 9.63825L14.247 6.41411C13.9074 6.0831 14.0948 5.50638 14.5641 5.43819L19.1351 4.77398C19.3215 4.7469 19.4826 4.62986 19.5659 4.46099L21.6102 0.318937Z" fill="url(#paint3_linear_11_169)"/>
<defs>
<linearGradient id="paint0_linear_11_169" x1="13.3639" y1="19.1143" x2="37.0468" y2="39.9537" gradientUnits="userSpaceOnUse">
<stop stop-color="#FF9B9B"/>
<stop offset="0.516874" stop-color="#F54E4E"/>
<stop offset="1" stop-color="#FF9B9B"/>
</linearGradient>
<linearGradient id="paint1_linear_11_169" x1="0.965491" y1="16.4438" x2="23.7417" y2="33.1547" gradientUnits="userSpaceOnUse">
<stop offset="0.270962" stop-color="#F54E4E"/>
<stop offset="1" stop-color="#FF9B9B"/>
<stop offset="1" stop-color="#FF9B9B"/>
</linearGradient>
<linearGradient id="paint2_linear_11_169" x1="43.0995" y1="16.4438" x2="20.3233" y2="33.1547" gradientUnits="userSpaceOnUse">
<stop offset="0.189201" stop-color="#F54E4E"/>
<stop offset="1" stop-color="#FF9B9B"/>
<stop offset="1" stop-color="#FF9B9B"/>
</linearGradient>
<linearGradient id="paint3_linear_11_169" x1="15.0319" y1="-1.17887e-07" x2="31.012" y2="17.3307" gradientUnits="userSpaceOnUse">
<stop stop-color="#FF9B9B"/>
<stop offset="0.516874" stop-color="#F54E4E"/>
<stop offset="1" stop-color="#FF9B9B"/>
</linearGradient>
</defs>
</svg>
