<svg width="144" height="26" viewBox="0 0 144 26" fill="none" xmlns="http://www.w3.org/2000/svg">
<path d="M110.642 11.7121C108.409 11.7121 107.363 12.6717 106.038 13.8867C104.562 15.2402 102.889 16.7744 99.6007 16.7744C96.3128 16.7744 94.6397 15.2402 93.1635 13.8867C91.8387 12.6717 90.7922 11.7121 88.5594 11.7121C86.3267 11.7121 85.2802 12.6717 83.9554 13.8867C82.4792 15.2402 80.8062 16.7744 77.5184 16.7744C74.2305 16.7744 72.5576 15.2402 71.0814 13.8865C69.7567 12.6716 68.7102 11.7121 66.4776 11.7121C64.2452 11.7121 63.1988 12.6717 61.874 13.8865C60.3979 15.2401 58.725 16.7744 55.4373 16.7744C52.1496 16.7744 50.4767 15.2402 49.0004 13.8867C47.6758 12.6717 46.6293 11.7121 44.3967 11.7121C42.1641 11.7121 41.1175 12.6717 39.7927 13.8867C38.3165 15.2401 36.6436 16.7744 33.3559 16.7744C32.6069 16.7744 32 16.1672 32 15.4185C32 14.6698 32.6069 14.0626 33.3559 14.0626C35.5885 14.0626 36.635 13.103 37.9597 11.8881C39.4357 10.5346 41.1088 9.00026 44.3967 9.00026C47.6844 9.00026 49.3573 10.5344 50.8335 11.8878C52.1582 13.1028 53.2047 14.0625 55.4373 14.0625C57.6697 14.0625 58.7161 13.1028 60.0409 11.888C61.517 10.5344 63.1899 9.00011 66.4776 9.00011C69.7653 9.00011 71.4382 10.5341 72.9144 11.8877C74.2392 13.1026 75.2858 14.0623 77.5184 14.0623C79.751 14.0623 80.7975 13.1026 82.1223 11.8878C83.5985 10.5343 85.2716 8.99995 88.5593 8.99995C91.847 8.99995 93.5201 10.534 94.9963 11.8875C96.3214 13.1025 97.3678 14.0621 99.6007 14.0621C101.833 14.0621 102.88 13.1025 104.205 11.8875C105.681 10.534 107.354 8.99995 110.642 8.99995C111.391 8.99995 111.998 9.60712 111.998 10.3559C111.998 11.1049 111.391 11.7121 110.642 11.7121Z" fill="#746969"/>
<circle cx="131" cy="13" r="13" fill="#B3EAD0"/>
<g clip-path="url(#clip0_1_303)">
<path d="M134.291 16.8516C132.758 16.8516 131.549 15.6093 131.549 14.0772C131.549 12.5451 132.807 11.3029 134.339 11.3029C134.354 11.3029 134.378 11.305 134.393 11.3052C133.787 10.8229 133.026 10.5322 132.193 10.5322C131.81 10.5322 131.502 10.2215 131.502 9.83859C131.502 9.4557 131.748 9.14501 132.132 9.14501C134.851 9.14527 137 11.3577 137 14.0772C137 14.0778 137 14.0783 137 14.0791C137 15.6104 135.822 16.8516 134.291 16.8516Z" fill="black"/>
<path d="M127.793 16.8516C126.26 16.8516 125.049 15.6093 125.049 14.0772C125.049 12.5451 126.306 11.3029 127.838 11.3029C127.854 11.3029 127.876 11.305 127.891 11.3052C127.286 10.8229 126.525 10.5322 125.692 10.5322C125.309 10.5322 125 10.2215 125 9.83859C125 9.4557 125.25 9.14501 125.634 9.14501C128.353 9.14527 130.506 11.3577 130.506 14.0772C130.506 14.0778 130.506 14.0783 130.506 14.0791C130.506 15.6104 129.324 16.8516 127.793 16.8516Z" fill="black"/>
</g>
<circle cx="13" cy="13" r="13" fill="#B3EAD0"/>
<g clip-path="url(#clip1_1_303)">
<path d="M9.70942 9.14844C11.2415 9.14844 12.4513 10.3907 12.4513 11.9228C12.4513 13.4549 11.193 14.6971 9.66084 14.6971C9.64551 14.6971 9.62239 14.695 9.60707 14.6948C10.2128 15.1771 10.9737 15.4678 11.8065 15.4678C12.1897 15.4678 12.498 15.7785 12.498 16.1614C12.498 16.5443 12.2515 16.855 11.8684 16.855C9.14884 16.8547 7.00003 14.6423 7.00003 11.9228C7.00003 11.9222 7.00003 11.9217 7.00003 11.9209C7.00003 10.3896 8.17782 9.14844 9.70942 9.14844Z" fill="black"/>
<path d="M16.2075 9.14844C17.7396 9.14844 18.9514 10.3907 18.9514 11.9228C18.9514 13.4549 17.6941 14.6971 16.1618 14.6971C16.1464 14.6971 16.1238 14.695 16.1085 14.6948C16.7143 15.1771 17.4754 15.4678 18.3082 15.4678C18.6914 15.4678 19 15.7785 19 16.1614C19 16.5443 18.7496 16.855 18.3664 16.855C15.6469 16.8547 13.4942 14.6423 13.4942 11.9228C13.4942 11.9222 13.4942 11.9217 13.4942 11.9209C13.4942 10.3896 14.6759 9.14844 16.2075 9.14844Z" fill="black"/>
</g>
<defs>
<clipPath id="clip0_1_303">
<rect width="12" height="12" fill="white" transform="matrix(1 8.74228e-08 8.74228e-08 -1 125 19)"/>
</clipPath>
<clipPath id="clip1_1_303">
<rect width="12" height="12" fill="white" transform="matrix(-1 -8.74228e-08 -8.74228e-08 1 19 7)"/>
</clipPath>
</defs>
</svg>
